<mxfile host="65bd71144e">
    <diagram name="General" id="3NQKazdsHHwbIv12-Uwj">
        <mxGraphModel dx="2278" dy="2900" grid="1" gridSize="10" guides="1" tooltips="1" connect="1" arrows="1" fold="1" page="1" pageScale="1" pageWidth="827" pageHeight="1169" background="#000000" math="0" shadow="0">
            <root>
                <mxCell id="0"/>
                <mxCell id="1" parent="0"/>
                <mxCell id="6PGobpr0RwCLXdiU7A31-20" value="" style="rounded=1;whiteSpace=wrap;html=1;fillColor=#cdeb8b;strokeColor=#36393d;" parent="1" vertex="1">
                    <mxGeometry x="-490" y="-180" width="1720" height="580" as="geometry"/>
                </mxCell>
                <mxCell id="6PGobpr0RwCLXdiU7A31-30" style="edgeStyle=orthogonalEdgeStyle;rounded=0;orthogonalLoop=1;jettySize=auto;html=1;entryX=0.51;entryY=0.004;entryDx=0;entryDy=0;entryPerimeter=0;" parent="1" source="6PGobpr0RwCLXdiU7A31-2" target="6PGobpr0RwCLXdiU7A31-32" edge="1">
                    <mxGeometry relative="1" as="geometry">
                        <mxPoint x="-15" y="470" as="targetPoint"/>
                        <Array as="points"/>
                    </mxGeometry>
                </mxCell>
                <mxCell id="6PGobpr0RwCLXdiU7A31-2" value="VPC" style="points=[[0,0],[0.25,0],[0.5,0],[0.75,0],[1,0],[1,0.25],[1,0.5],[1,0.75],[1,1],[0.75,1],[0.5,1],[0.25,1],[0,1],[0,0.75],[0,0.5],[0,0.25]];outlineConnect=0;gradientColor=none;html=1;whiteSpace=wrap;fontSize=12;fontStyle=0;container=1;pointerEvents=0;collapsible=0;recursiveResize=0;shape=mxgraph.aws4.group;grIcon=mxgraph.aws4.group_vpc2;strokeColor=#8C4FFF;fillColor=default;verticalAlign=top;align=left;spacingLeft=30;fontColor=#AAB7B8;dashed=0;" parent="1" vertex="1">
                    <mxGeometry x="-410" y="-50" width="590" height="380" as="geometry"/>
                </mxCell>
                <mxCell id="6PGobpr0RwCLXdiU7A31-3" value="EC2&lt;br&gt;Backend" style="outlineConnect=0;dashed=0;verticalLabelPosition=bottom;verticalAlign=top;align=center;html=1;shape=mxgraph.aws3.ec2;fillColor=#F58534;gradientColor=none;" parent="6PGobpr0RwCLXdiU7A31-2" vertex="1">
                    <mxGeometry x="156.75" y="217" width="76.5" height="93" as="geometry"/>
                </mxCell>
                <mxCell id="6PGobpr0RwCLXdiU7A31-5" value="DB&lt;br&gt;(RDS)" style="shape=cylinder3;whiteSpace=wrap;html=1;boundedLbl=1;backgroundOutline=1;size=15;" parent="6PGobpr0RwCLXdiU7A31-2" vertex="1">
                    <mxGeometry x="153.38" y="40" width="83.25" height="80" as="geometry"/>
                </mxCell>
                <mxCell id="6PGobpr0RwCLXdiU7A31-6" style="edgeStyle=orthogonalEdgeStyle;rounded=0;orthogonalLoop=1;jettySize=auto;html=1;entryX=0.5;entryY=1;entryDx=0;entryDy=0;entryPerimeter=0;" parent="6PGobpr0RwCLXdiU7A31-2" source="6PGobpr0RwCLXdiU7A31-3" target="6PGobpr0RwCLXdiU7A31-5" edge="1">
                    <mxGeometry relative="1" as="geometry"/>
                </mxCell>
                <mxCell id="6PGobpr0RwCLXdiU7A31-22" value="Security group" style="fillColor=none;strokeColor=#DD3522;verticalAlign=top;fontStyle=0;fontColor=#DD3522;whiteSpace=wrap;html=1;" parent="6PGobpr0RwCLXdiU7A31-2" vertex="1">
                    <mxGeometry x="115.01" y="190" width="160" height="160" as="geometry"/>
                </mxCell>
                <mxCell id="6PGobpr0RwCLXdiU7A31-23" value="Security group" style="fillColor=none;strokeColor=#DD3522;verticalAlign=top;fontStyle=0;fontColor=#DD3522;whiteSpace=wrap;html=1;" parent="6PGobpr0RwCLXdiU7A31-2" vertex="1">
                    <mxGeometry x="115" y="10" width="160" height="150" as="geometry"/>
                </mxCell>
                <mxCell id="2" value="Lambda&lt;br&gt;Backend" style="outlineConnect=0;dashed=0;verticalLabelPosition=bottom;verticalAlign=top;align=center;html=1;shape=mxgraph.aws3.lambda_function;fillColor=#F58534;gradientColor=none;" parent="6PGobpr0RwCLXdiU7A31-2" vertex="1">
                    <mxGeometry x="390" y="33.75" width="90" height="92.5" as="geometry"/>
                </mxCell>
                <mxCell id="5" style="edgeStyle=none;html=1;exitX=0;exitY=0.5;exitDx=0;exitDy=0;exitPerimeter=0;entryX=0.781;entryY=0.467;entryDx=0;entryDy=0;entryPerimeter=0;" parent="6PGobpr0RwCLXdiU7A31-2" source="2" target="6PGobpr0RwCLXdiU7A31-23" edge="1">
                    <mxGeometry relative="1" as="geometry"/>
                </mxCell>
                <mxCell id="6PGobpr0RwCLXdiU7A31-9" value="S3&lt;br&gt;(HTML, CSS, JS)" style="sketch=0;points=[[0,0,0],[0.25,0,0],[0.5,0,0],[0.75,0,0],[1,0,0],[0,1,0],[0.25,1,0],[0.5,1,0],[0.75,1,0],[1,1,0],[0,0.25,0],[0,0.5,0],[0,0.75,0],[1,0.25,0],[1,0.5,0],[1,0.75,0]];outlineConnect=0;fontColor=#232F3E;fillColor=#7AA116;strokeColor=#ffffff;dashed=0;verticalLabelPosition=bottom;verticalAlign=top;align=center;html=1;fontSize=12;fontStyle=0;aspect=fixed;shape=mxgraph.aws4.resourceIcon;resIcon=mxgraph.aws4.s3;" parent="1" vertex="1">
                    <mxGeometry x="300" y="-30" width="78" height="78" as="geometry"/>
                </mxCell>
                <mxCell id="6PGobpr0RwCLXdiU7A31-10" value="ApiGateway" style="sketch=0;points=[[0,0,0],[0.25,0,0],[0.5,0,0],[0.75,0,0],[1,0,0],[0,1,0],[0.25,1,0],[0.5,1,0],[0.75,1,0],[1,1,0],[0,0.25,0],[0,0.5,0],[0,0.75,0],[1,0.25,0],[1,0.5,0],[1,0.75,0]];outlineConnect=0;fontColor=#232F3E;fillColor=#E7157B;strokeColor=#ffffff;dashed=0;verticalLabelPosition=bottom;verticalAlign=top;align=center;html=1;fontSize=12;fontStyle=0;aspect=fixed;shape=mxgraph.aws4.resourceIcon;resIcon=mxgraph.aws4.api_gateway;" parent="1" vertex="1">
                    <mxGeometry x="300" y="174.5" width="78" height="78" as="geometry"/>
                </mxCell>
                <mxCell id="6PGobpr0RwCLXdiU7A31-15" style="edgeStyle=orthogonalEdgeStyle;rounded=0;orthogonalLoop=1;jettySize=auto;html=1;entryX=1;entryY=0.5;entryDx=0;entryDy=0;entryPerimeter=0;" parent="1" target="6PGobpr0RwCLXdiU7A31-9" edge="1">
                    <mxGeometry relative="1" as="geometry">
                        <mxPoint x="528.3333333333335" y="167" as="sourcePoint"/>
                        <Array as="points">
                            <mxPoint x="528" y="9"/>
                        </Array>
                    </mxGeometry>
                </mxCell>
                <mxCell id="6PGobpr0RwCLXdiU7A31-21" value="&lt;font style=&quot;font-size: 25px;&quot;&gt;&lt;b style=&quot;&quot;&gt;Arquitectura Cloud - General&lt;/b&gt;&lt;/font&gt;" style="text;html=1;align=center;verticalAlign=middle;whiteSpace=wrap;rounded=0;" parent="1" vertex="1">
                    <mxGeometry x="120" y="-170" width="390" height="30" as="geometry"/>
                </mxCell>
                <mxCell id="6PGobpr0RwCLXdiU7A31-24" value="Route53" style="sketch=0;points=[[0,0,0],[0.25,0,0],[0.5,0,0],[0.75,0,0],[1,0,0],[0,1,0],[0.25,1,0],[0.5,1,0],[0.75,1,0],[1,1,0],[0,0.25,0],[0,0.5,0],[0,0.75,0],[1,0.25,0],[1,0.5,0],[1,0.75,0]];outlineConnect=0;fontColor=#232F3E;fillColor=#8C4FFF;strokeColor=#ffffff;dashed=0;verticalLabelPosition=bottom;verticalAlign=top;align=center;html=1;fontSize=12;fontStyle=0;aspect=fixed;shape=mxgraph.aws4.resourceIcon;resIcon=mxgraph.aws4.route_53;" parent="1" vertex="1">
                    <mxGeometry x="660" y="174.5" width="78" height="78" as="geometry"/>
                </mxCell>
                <mxCell id="6PGobpr0RwCLXdiU7A31-25" style="edgeStyle=orthogonalEdgeStyle;rounded=0;orthogonalLoop=1;jettySize=auto;html=1;exitX=0;exitY=0.5;exitDx=0;exitDy=0;exitPerimeter=0;entryX=1;entryY=0.5;entryDx=0;entryDy=0;entryPerimeter=0;" parent="1" source="6PGobpr0RwCLXdiU7A31-24" target="6PGobpr0RwCLXdiU7A31-26" edge="1">
                    <mxGeometry relative="1" as="geometry">
                        <mxPoint x="566.5" y="213.5" as="targetPoint"/>
                    </mxGeometry>
                </mxCell>
                <mxCell id="6PGobpr0RwCLXdiU7A31-26" value="CloudFront" style="sketch=0;points=[[0,0,0],[0.25,0,0],[0.5,0,0],[0.75,0,0],[1,0,0],[0,1,0],[0.25,1,0],[0.5,1,0],[0.75,1,0],[1,1,0],[0,0.25,0],[0,0.5,0],[0,0.75,0],[1,0.25,0],[1,0.5,0],[1,0.75,0]];outlineConnect=0;fontColor=#232F3E;fillColor=#8C4FFF;strokeColor=#ffffff;dashed=0;verticalLabelPosition=bottom;verticalAlign=top;align=center;html=1;fontSize=12;fontStyle=0;aspect=fixed;shape=mxgraph.aws4.resourceIcon;resIcon=mxgraph.aws4.cloudfront;" parent="1" vertex="1">
                    <mxGeometry x="480" y="170" width="88" height="88" as="geometry"/>
                </mxCell>
                <mxCell id="6PGobpr0RwCLXdiU7A31-27" style="edgeStyle=orthogonalEdgeStyle;rounded=0;orthogonalLoop=1;jettySize=auto;html=1;entryX=1;entryY=0.5;entryDx=0;entryDy=0;entryPerimeter=0;" parent="1" source="6PGobpr0RwCLXdiU7A31-26" target="6PGobpr0RwCLXdiU7A31-10" edge="1">
                    <mxGeometry relative="1" as="geometry"/>
                </mxCell>
                <mxCell id="6PGobpr0RwCLXdiU7A31-28" value="&lt;h1 style=&quot;margin-top: 0px;&quot;&gt;Descripción&lt;/h1&gt;&lt;p&gt;&lt;b&gt;Route 53:&lt;/b&gt; Traduce el dominio web (URL) a la dirección de CloudFront.&lt;/p&gt;&lt;p&gt;&lt;b&gt;CloudFront:&lt;/b&gt; Acelera y distribuye el frontend (desde S3) y enruta las peticiones de API a API Gateway.&lt;/p&gt;&lt;p&gt;&lt;b&gt;S3:&lt;/b&gt; Almacena los archivos estáticos del frontend (HTML, CSS, JS compilado).&lt;/p&gt;&lt;p&gt;&lt;b&gt;API Gateway:&lt;/b&gt; Punto de entrada único y seguro para la API. Gestiona y protege el acceso al backend.&lt;/p&gt;&lt;p&gt;&lt;b&gt;VPC:&lt;/b&gt; Red privada que aísla y protege el backend (EC2 y RDS) de internet.&lt;/p&gt;&lt;p&gt;&lt;b&gt;EC2/Lambda Backend:&lt;/b&gt; Ejecuta el código de la aplicación (backend). Procesa la lógica de negocio y se conecta a la base de datos.&lt;/p&gt;&lt;p&gt;&lt;b&gt;DB (RDS):&lt;/b&gt; Base de datos relacional gestionada que almacena de forma segura todos los datos de la aplicación.&lt;/p&gt;&lt;p&gt;&lt;b&gt;Security Group (del EC2):&lt;/b&gt; Firewall que permite acceso al EC2 únicamente desde API Gateway.&lt;/p&gt;&lt;p&gt;&lt;b&gt;Security Group (de la RDS):&lt;/b&gt; Firewall que permite acceso a la Base de Datos únicamente desde la EC2.&lt;/p&gt;" style="text;html=1;whiteSpace=wrap;overflow=hidden;rounded=0;" parent="1" vertex="1">
                    <mxGeometry x="800" y="-110" width="387" height="460" as="geometry"/>
                </mxCell>
                <mxCell id="6PGobpr0RwCLXdiU7A31-32" value="" style="rounded=1;whiteSpace=wrap;html=1;fillColor=#cdeb8b;strokeColor=#36393d;" parent="1" vertex="1">
                    <mxGeometry x="-390" y="510" width="540" height="270" as="geometry"/>
                </mxCell>
                <mxCell id="6PGobpr0RwCLXdiU7A31-33" value="&lt;h1 style=&quot;margin-top: 0px;&quot;&gt;Extras Backend&lt;/h1&gt;&lt;p&gt;&lt;/p&gt;&lt;ul&gt;&lt;li&gt;Si hay que hacer face recognition, contemplar:&lt;/li&gt;&lt;ul&gt;&lt;li&gt;LAMBDA (Integración)&lt;/li&gt;&lt;li&gt;REKOGNITION (IA Gestión facial)&lt;/li&gt;&lt;/ul&gt;&lt;li&gt;Casos de nuevas implementaciónes, como eventos, compatibles con FAAS:&lt;/li&gt;&lt;ul&gt;&lt;li&gt;Lambda&lt;/li&gt;&lt;li&gt;Api Gateway&lt;/li&gt;&lt;/ul&gt;&lt;li&gt;NoSQL:&lt;/li&gt;&lt;ul&gt;&lt;li&gt;DynamoDB&lt;/li&gt;&lt;/ul&gt;&lt;/ul&gt;&lt;p&gt;&lt;/p&gt;" style="text;html=1;whiteSpace=wrap;overflow=hidden;rounded=0;" parent="1" vertex="1">
                    <mxGeometry x="-335" y="535" width="450" height="245" as="geometry"/>
                </mxCell>
                <mxCell id="3" style="edgeStyle=none;html=1;exitX=0;exitY=0.25;exitDx=0;exitDy=0;exitPerimeter=0;entryX=1;entryY=0.5;entryDx=0;entryDy=0;entryPerimeter=0;" parent="1" source="6PGobpr0RwCLXdiU7A31-10" target="2" edge="1">
                    <mxGeometry relative="1" as="geometry">
                        <Array as="points">
                            <mxPoint x="210" y="194"/>
                            <mxPoint x="210" y="30"/>
                        </Array>
                    </mxGeometry>
                </mxCell>
                <mxCell id="4" style="edgeStyle=none;html=1;exitX=0;exitY=0.75;exitDx=0;exitDy=0;exitPerimeter=0;entryX=0.969;entryY=0.581;entryDx=0;entryDy=0;entryPerimeter=0;" parent="1" source="6PGobpr0RwCLXdiU7A31-10" target="6PGobpr0RwCLXdiU7A31-22" edge="1">
                    <mxGeometry relative="1" as="geometry"/>
                </mxCell>
            </root>
        </mxGraphModel>
    </diagram>
</mxfile>